<svg id="Layer_1" data-name="Layer 1" xmlns="http://www.w3.org/2000/svg" xmlns:xlink="http://www.w3.org/1999/xlink" viewBox="0 0 111 32"><defs><style>.cls-1{fill:url(#linear-gradient);}.cls-2{fill:url(#linear-gradient-2);}.cls-3{fill:url(#linear-gradient-3);}.cls-4{fill:url(#linear-gradient-4);}.cls-5{fill:#c240bf;}</style><linearGradient id="linear-gradient" x1="53.57" y1="16" x2="117.8" y2="16" gradientUnits="userSpaceOnUse"><stop offset="0" stop-color="#4dc3ff"/><stop offset="0.25" stop-color="#8733ff"/><stop offset="0.58" stop-color="#ff31fa"/><stop offset="0.74" stop-color="#ff793e"/><stop offset="1" stop-color="#ffde3e"/></linearGradient><linearGradient id="linear-gradient-2" x1="60.38" y1="9.47" x2="60.59" y2="27.51" gradientUnits="userSpaceOnUse"><stop offset="0" stop-color="#1a175e"/><stop offset="0.19" stop-color="#271a72" stop-opacity="0.88"/><stop offset="0.53" stop-color="#4b24a7" stop-opacity="0.55"/><stop offset="0.98" stop-color="#8532fc" stop-opacity="0.02"/><stop offset="1" stop-color="#8733ff" stop-opacity="0"/></linearGradient><linearGradient id="linear-gradient-3" x1="76.28" y1="13.28" x2="105.17" y2="15.48" gradientUnits="userSpaceOnUse"><stop offset="0" stop-color="#1a175e"/><stop offset="0.07" stop-color="#22196a"/><stop offset="0.19" stop-color="#371e88"/><stop offset="0.34" stop-color="#5927bb"/><stop offset="0.53" stop-color="#8733ff"/><stop offset="1" stop-color="#ffde3e" stop-opacity="0"/></linearGradient><linearGradient id="linear-gradient-4" x1="68.66" y1="23.23" x2="97.65" y2="2.42" gradientUnits="userSpaceOnUse"><stop offset="0.02" stop-color="#ff31fa" stop-opacity="0"/><stop offset="0.45" stop-color="#8733ff"/><stop offset="0.65" stop-color="#5927bb"/><stop offset="0.81" stop-color="#371e88"/><stop offset="0.93" stop-color="#22196a"/><stop offset="1" stop-color="#1a175e"/></linearGradient></defs><title>logo</title><path class="cls-1" d="M67.43,30.34H63.31c-9.12,0-16.54-6.61-16.54-14.73S54.19.88,63.31.88H82L77.79,6.57H63.31c-5.6,0-10.15,4-10.15,9s4.55,9.05,10.15,9.05h2.58l3.35-4.51h4.94ZM100.65,2l-4.3,4.78c4.7.78,8.26,4.46,8.26,8.88,0,5-4.54,9.05-10.15,9.05a10.63,10.63,0,0,1-8-3.45l-4.62,3.94a17.36,17.36,0,0,0,12.6,5.19c9.13,0,16.54-6.59,16.54-14.73C111,9.42,106.72,4.13,100.65,2Zm-3-1.08H85.61L73.33,17.39h6.15l-9.1,13.74L92.57,12.22H87.46Z"/><path class="cls-2" d="M65.89,24.66H63.31c-5.6,0-10.15-4.06-10.15-9s4.55-9,10.15-9H57.18c-3.45,0-10,2.13-10.41,9,0,8.12,7.42,14.73,16.54,14.73h4.12l6.75-10.19H69.24Z"/><path class="cls-3" d="M100.65,2l-4.3,4.78c4.7.78,8.26,4.46,8.26,8.88,0,5-4.54,9.05-10.15,9.05a10.63,10.63,0,0,1-8-3.45l-1.89,1.61a14.85,14.85,0,0,0,11.75,5.12c6.45,0,12-4.53,14.35-9.5a13.26,13.26,0,0,0,.31-2.83C111,9.42,106.72,4.13,100.65,2Z"/><polyline class="cls-4" points="97.67 0.87 73.33 17.39 79.48 17.39 87.46 12.22 87.46 12.22"/><polygon class="cls-5" points="40.4 9.56 37.81 9.56 37.76 12.38 40.4 12.38 40.4 9.56"/><path class="cls-5" d="M39.16,14.18a16.44,16.44,0,0,1,.44,2.24c0,.47-.41.7-1.23.7h-.3V17h-.71l-.25,0h0c-.57-.15-1.71-1.73-3.44-4.77l3.19-2.87L34.88,7l-5.2,4.73q3.06,4.39,3.06,4.94c0,.25-.39.37-1.16.36H30.51a1.64,1.64,0,0,1-1.62-1,19.21,19.21,0,0,1-.56-2.31l-2.92.86a17.4,17.4,0,0,1,.42,1.94c0,.35-.24.52-.72.52h-.57c-.22,0-.34-.09-.34-.24s.11-.68.32-1.87l-3-.53a12,12,0,0,1-.08,1.7c-.13.63-.41,1-.84,1s-.6-.36-.79-1.07c0-.07-.12-.58-.28-1.52L16.45,15q.24,1.25.24,1.41c0,.43-.42.65-1.25.64h-.65c-.74,0-1.13-.22-1.17-.64L12.86,8.7,9.92,9,11,21.18,9,21.93a7.14,7.14,0,0,1-2.11.42,2.07,2.07,0,0,1-1.45-.54,1.77,1.77,0,0,1-.6-1.38,9,9,0,0,1,.31-2.18l.6-2.12-3-1-.75,2.71a12.07,12.07,0,0,0-.39,2.81A4.85,4.85,0,0,0,3,24.25a4.75,4.75,0,0,0,3.49,1.43q2.12,0,7.84-2.36c-.18-.91-.33-2-.46-3.29a3,3,0,0,0,.84.17v0h.94a11,11,0,0,0,1.16-.06,2.89,2.89,0,0,0,1.87-.9,2.78,2.78,0,0,0,2.11,1,2.9,2.9,0,0,0,2-.81,2.71,2.71,0,0,0,2.23.81,4.84,4.84,0,0,0,2.8-.83,3.18,3.18,0,0,0,2,.81v0H31a6,6,0,0,0,3.61-.95,4.61,4.61,0,0,0,2.52.93v0H39a4,4,0,0,0,2.45-.74A2.89,2.89,0,0,0,42.61,17,13.69,13.69,0,0,0,42,13.56Z"/><rect class="cls-5" x="40.73" y="9.56" width="2.63" height="2.81"/></svg>